<mxfile host="app.diagrams.net" agent="Mozilla/5.0 (Windows NT 10.0; Win64; x64) AppleWebKit/537.36 (KHTML, like Gecko) Chrome/128.0.0.0 Safari/537.36" version="24.7.10" pages="4">
  <diagram name="CDN 中转" id="e3a06f82-3646-2815-327d-82caf3d4e204">
    <mxGraphModel dx="1060" dy="614" grid="0" gridSize="10" guides="1" tooltips="1" connect="1" arrows="1" fold="1" page="1" pageScale="1.5" pageWidth="1169" pageHeight="826" background="none" math="0" shadow="0">
      <root>
        <mxCell id="0" style=";html=1;" />
        <mxCell id="1" style=";html=1;" parent="0" />
        <mxCell id="VpjPtq_sQXusabf9HzCg-84" style="edgeStyle=orthogonalEdgeStyle;rounded=0;orthogonalLoop=1;jettySize=auto;html=1;exitX=1;exitY=0.5;exitDx=0;exitDy=0;entryX=0;entryY=0.5;entryDx=0;entryDy=0;" edge="1" parent="1" source="VpjPtq_sQXusabf9HzCg-75" target="VpjPtq_sQXusabf9HzCg-76">
          <mxGeometry relative="1" as="geometry" />
        </mxCell>
        <mxCell id="VpjPtq_sQXusabf9HzCg-85" style="edgeStyle=orthogonalEdgeStyle;rounded=0;orthogonalLoop=1;jettySize=auto;html=1;exitX=1;exitY=0.5;exitDx=0;exitDy=0;entryX=0;entryY=0.5;entryDx=0;entryDy=0;" edge="1" parent="1" source="VpjPtq_sQXusabf9HzCg-75" target="VpjPtq_sQXusabf9HzCg-77">
          <mxGeometry relative="1" as="geometry">
            <Array as="points">
              <mxPoint x="313" y="404" />
              <mxPoint x="313" y="284" />
            </Array>
          </mxGeometry>
        </mxCell>
        <mxCell id="VpjPtq_sQXusabf9HzCg-88" value="&lt;font style=&quot;font-size: 14px;&quot;&gt;订阅&lt;/font&gt;" style="edgeLabel;html=1;align=center;verticalAlign=middle;resizable=0;points=[];" vertex="1" connectable="0" parent="VpjPtq_sQXusabf9HzCg-85">
          <mxGeometry x="-0.0983" y="2" relative="1" as="geometry">
            <mxPoint as="offset" />
          </mxGeometry>
        </mxCell>
        <mxCell id="VpjPtq_sQXusabf9HzCg-75" value="客户端" style="whiteSpace=wrap;shadow=0;fontColor=#FFFFFF;fontFamily=Helvetica;fontStyle=0;html=1;fontSize=12;plain-purple;strokeColor=none;fillColor=#2f5b7c;gradientColor=none;spacing=6;verticalAlign=middle;" vertex="1" parent="1">
          <mxGeometry x="133" y="374" width="120" height="60" as="geometry" />
        </mxCell>
        <mxCell id="VpjPtq_sQXusabf9HzCg-83" style="edgeStyle=orthogonalEdgeStyle;rounded=0;orthogonalLoop=1;jettySize=auto;html=1;exitX=1;exitY=0.5;exitDx=0;exitDy=0;entryX=0;entryY=0.5;entryDx=0;entryDy=0;" edge="1" parent="1" source="VpjPtq_sQXusabf9HzCg-76" target="VpjPtq_sQXusabf9HzCg-78">
          <mxGeometry relative="1" as="geometry" />
        </mxCell>
        <mxCell id="VpjPtq_sQXusabf9HzCg-76" value="CDN 中转" style="whiteSpace=wrap;shadow=0;fontColor=#FFFFFF;fontFamily=Helvetica;fontStyle=0;html=1;fontSize=12;plain-purple;strokeColor=none;fillColor=#2f5b7c;gradientColor=none;spacing=6;verticalAlign=middle;" vertex="1" parent="1">
          <mxGeometry x="373" y="474" width="120" height="60" as="geometry" />
        </mxCell>
        <mxCell id="VpjPtq_sQXusabf9HzCg-82" style="edgeStyle=orthogonalEdgeStyle;rounded=0;orthogonalLoop=1;jettySize=auto;html=1;exitX=0.5;exitY=1;exitDx=0;exitDy=0;entryX=0.5;entryY=0;entryDx=0;entryDy=0;shape=link;" edge="1" parent="1" source="VpjPtq_sQXusabf9HzCg-77" target="VpjPtq_sQXusabf9HzCg-78">
          <mxGeometry relative="1" as="geometry" />
        </mxCell>
        <mxCell id="VpjPtq_sQXusabf9HzCg-77" value="高防（站点）" style="whiteSpace=wrap;shadow=0;fontColor=#FFFFFF;fontFamily=Helvetica;fontStyle=0;html=1;fontSize=12;plain-purple;strokeColor=none;fillColor=#2f5b7c;gradientColor=none;spacing=6;verticalAlign=middle;" vertex="1" parent="1">
          <mxGeometry x="773" y="254" width="120" height="60" as="geometry" />
        </mxCell>
        <mxCell id="VpjPtq_sQXusabf9HzCg-81" style="edgeStyle=orthogonalEdgeStyle;rounded=0;orthogonalLoop=1;jettySize=auto;html=1;exitX=1;exitY=0.5;exitDx=0;exitDy=0;entryX=0;entryY=0.5;entryDx=0;entryDy=0;" edge="1" parent="1" source="VpjPtq_sQXusabf9HzCg-78" target="VpjPtq_sQXusabf9HzCg-79">
          <mxGeometry relative="1" as="geometry" />
        </mxCell>
        <mxCell id="VpjPtq_sQXusabf9HzCg-78" value="节点&lt;div&gt;（审计）&lt;/div&gt;" style="whiteSpace=wrap;shadow=0;fontColor=#FFFFFF;fontFamily=Helvetica;fontStyle=0;html=1;fontSize=12;plain-purple;strokeColor=none;fillColor=#2f5b7c;gradientColor=none;spacing=6;verticalAlign=middle;" vertex="1" parent="1">
          <mxGeometry x="773" y="474" width="120" height="60" as="geometry" />
        </mxCell>
        <mxCell id="VpjPtq_sQXusabf9HzCg-79" value="DNS 反代" style="whiteSpace=wrap;shadow=0;fontColor=#FFFFFF;fontFamily=Helvetica;fontStyle=0;html=1;fontSize=12;plain-purple;strokeColor=none;fillColor=#2f5b7c;gradientColor=none;spacing=6;verticalAlign=middle;" vertex="1" parent="1">
          <mxGeometry x="1013" y="474" width="120" height="60" as="geometry" />
        </mxCell>
        <mxCell id="VpjPtq_sQXusabf9HzCg-80" value="G&lt;div&gt;F&lt;/div&gt;&lt;div&gt;W&lt;/div&gt;" style="whiteSpace=wrap;shadow=0;fontColor=#FFFFFF;fontFamily=Helvetica;fontStyle=0;html=1;fontSize=12;plain-purple;strokeColor=none;fillColor=#2f5b7c;gradientColor=none;spacing=6;verticalAlign=middle;" vertex="1" parent="1">
          <mxGeometry x="613" y="124" width="40" height="560" as="geometry" />
        </mxCell>
      </root>
    </mxGraphModel>
  </diagram>
  <diagram id="0SU-hReqOU7FJ1JEjfTw" name="CF 中转">
    <mxGraphModel dx="954" dy="553" grid="0" gridSize="10" guides="1" tooltips="1" connect="1" arrows="1" fold="1" page="1" pageScale="1" pageWidth="1169" pageHeight="827" math="0" shadow="0">
      <root>
        <mxCell id="0" />
        <mxCell id="1" parent="0" />
        <mxCell id="YY5XKfltQ7xSmYrN_jfa-1" style="edgeStyle=orthogonalEdgeStyle;rounded=0;orthogonalLoop=1;jettySize=auto;html=1;exitX=1;exitY=0.5;exitDx=0;exitDy=0;entryX=0;entryY=0.5;entryDx=0;entryDy=0;" edge="1" parent="1" source="YY5XKfltQ7xSmYrN_jfa-3" target="YY5XKfltQ7xSmYrN_jfa-7">
          <mxGeometry relative="1" as="geometry">
            <Array as="points">
              <mxPoint x="271" y="320" />
              <mxPoint x="271" y="200" />
            </Array>
          </mxGeometry>
        </mxCell>
        <mxCell id="YY5XKfltQ7xSmYrN_jfa-2" style="edgeStyle=orthogonalEdgeStyle;rounded=0;orthogonalLoop=1;jettySize=auto;html=1;exitX=1;exitY=0.5;exitDx=0;exitDy=0;entryX=0;entryY=0.5;entryDx=0;entryDy=0;" edge="1" parent="1" source="YY5XKfltQ7xSmYrN_jfa-3" target="YY5XKfltQ7xSmYrN_jfa-5">
          <mxGeometry relative="1" as="geometry">
            <Array as="points">
              <mxPoint x="271" y="320" />
              <mxPoint x="271" y="420" />
            </Array>
          </mxGeometry>
        </mxCell>
        <mxCell id="YY5XKfltQ7xSmYrN_jfa-3" value="客户端" style="whiteSpace=wrap;shadow=0;fontColor=#FFFFFF;fontFamily=Helvetica;fontStyle=0;html=1;fontSize=12;plain-purple;strokeColor=none;fillColor=#2f5b7c;gradientColor=none;spacing=6;verticalAlign=middle;" vertex="1" parent="1">
          <mxGeometry x="60" y="290" width="120" height="60" as="geometry" />
        </mxCell>
        <mxCell id="YY5XKfltQ7xSmYrN_jfa-4" style="edgeStyle=orthogonalEdgeStyle;rounded=0;orthogonalLoop=1;jettySize=auto;html=1;exitX=1;exitY=0.5;exitDx=0;exitDy=0;entryX=0;entryY=0.5;entryDx=0;entryDy=0;" edge="1" parent="1" source="YY5XKfltQ7xSmYrN_jfa-5" target="YY5XKfltQ7xSmYrN_jfa-9">
          <mxGeometry relative="1" as="geometry" />
        </mxCell>
        <mxCell id="YY5XKfltQ7xSmYrN_jfa-5" value="CF 中转" style="whiteSpace=wrap;shadow=0;fontColor=#FFFFFF;fontFamily=Helvetica;fontStyle=0;html=1;fontSize=12;plain-purple;strokeColor=none;fillColor=#2f5b7c;gradientColor=none;spacing=6;verticalAlign=middle;" vertex="1" parent="1">
          <mxGeometry x="482" y="390" width="120" height="60" as="geometry" />
        </mxCell>
        <mxCell id="YY5XKfltQ7xSmYrN_jfa-6" style="edgeStyle=orthogonalEdgeStyle;rounded=0;orthogonalLoop=1;jettySize=auto;html=1;exitX=0.5;exitY=1;exitDx=0;exitDy=0;entryX=0.5;entryY=0;entryDx=0;entryDy=0;shape=link;" edge="1" parent="1" source="YY5XKfltQ7xSmYrN_jfa-7" target="YY5XKfltQ7xSmYrN_jfa-9">
          <mxGeometry relative="1" as="geometry" />
        </mxCell>
        <mxCell id="YY5XKfltQ7xSmYrN_jfa-7" value="高防（站点）" style="whiteSpace=wrap;shadow=0;fontColor=#FFFFFF;fontFamily=Helvetica;fontStyle=0;html=1;fontSize=12;plain-purple;strokeColor=none;fillColor=#2f5b7c;gradientColor=none;spacing=6;verticalAlign=middle;" vertex="1" parent="1">
          <mxGeometry x="713" y="170" width="120" height="60" as="geometry" />
        </mxCell>
        <mxCell id="YY5XKfltQ7xSmYrN_jfa-8" style="edgeStyle=orthogonalEdgeStyle;rounded=0;orthogonalLoop=1;jettySize=auto;html=1;exitX=1;exitY=0.5;exitDx=0;exitDy=0;entryX=0;entryY=0.5;entryDx=0;entryDy=0;" edge="1" parent="1" source="YY5XKfltQ7xSmYrN_jfa-9" target="YY5XKfltQ7xSmYrN_jfa-10">
          <mxGeometry relative="1" as="geometry" />
        </mxCell>
        <mxCell id="YY5XKfltQ7xSmYrN_jfa-9" value="节点&lt;div&gt;（审计）&lt;/div&gt;" style="whiteSpace=wrap;shadow=0;fontColor=#FFFFFF;fontFamily=Helvetica;fontStyle=0;html=1;fontSize=12;plain-purple;strokeColor=none;fillColor=#2f5b7c;gradientColor=none;spacing=6;verticalAlign=middle;" vertex="1" parent="1">
          <mxGeometry x="713" y="390" width="120" height="60" as="geometry" />
        </mxCell>
        <mxCell id="YY5XKfltQ7xSmYrN_jfa-10" value="DNS 反代" style="whiteSpace=wrap;shadow=0;fontColor=#FFFFFF;fontFamily=Helvetica;fontStyle=0;html=1;fontSize=12;plain-purple;strokeColor=none;fillColor=#2f5b7c;gradientColor=none;spacing=6;verticalAlign=middle;" vertex="1" parent="1">
          <mxGeometry x="953" y="390" width="120" height="60" as="geometry" />
        </mxCell>
        <mxCell id="YY5XKfltQ7xSmYrN_jfa-11" value="G&lt;div&gt;F&lt;/div&gt;&lt;div&gt;W&lt;/div&gt;" style="whiteSpace=wrap;shadow=0;fontColor=#FFFFFF;fontFamily=Helvetica;fontStyle=0;html=1;fontSize=12;plain-purple;strokeColor=none;fillColor=#2f5b7c;gradientColor=none;spacing=6;verticalAlign=middle;" vertex="1" parent="1">
          <mxGeometry x="348" y="40" width="40" height="560" as="geometry" />
        </mxCell>
      </root>
    </mxGraphModel>
  </diagram>
  <diagram id="w7vXYVJ83Fq6Z265rKFB" name="中转">
    <mxGraphModel dx="1434" dy="772" grid="1" gridSize="10" guides="1" tooltips="1" connect="1" arrows="1" fold="1" page="1" pageScale="1" pageWidth="827" pageHeight="1169" math="0" shadow="0">
      <root>
        <mxCell id="0" />
        <mxCell id="1" parent="0" />
        <mxCell id="nZiSrGzn1sCeWdxAGg9a-31" style="edgeStyle=orthogonalEdgeStyle;rounded=0;orthogonalLoop=1;jettySize=auto;html=1;exitX=1;exitY=0.5;exitDx=0;exitDy=0;entryX=0;entryY=0.5;entryDx=0;entryDy=0;" edge="1" parent="1" source="SFx-6rvFim5ZwtvSsJdO-1" target="SFx-6rvFim5ZwtvSsJdO-2">
          <mxGeometry relative="1" as="geometry" />
        </mxCell>
        <mxCell id="SFx-6rvFim5ZwtvSsJdO-1" value="用户" style="whiteSpace=wrap;shadow=0;fontColor=#FFFFFF;fontFamily=Helvetica;fontStyle=0;html=1;fontSize=12;plain-purple;strokeColor=none;fillColor=#2f5b7c;gradientColor=none;spacing=6;verticalAlign=middle;" vertex="1" parent="1">
          <mxGeometry x="40" y="200" width="120" height="60" as="geometry" />
        </mxCell>
        <mxCell id="nZiSrGzn1sCeWdxAGg9a-9" style="edgeStyle=orthogonalEdgeStyle;rounded=0;orthogonalLoop=1;jettySize=auto;html=1;exitX=1;exitY=0.5;exitDx=0;exitDy=0;entryX=0;entryY=0.5;entryDx=0;entryDy=0;" edge="1" parent="1" source="SFx-6rvFim5ZwtvSsJdO-2" target="SFx-6rvFim5ZwtvSsJdO-3">
          <mxGeometry relative="1" as="geometry" />
        </mxCell>
        <mxCell id="SFx-6rvFim5ZwtvSsJdO-2" value="国内高防" style="whiteSpace=wrap;shadow=0;fontColor=#FFFFFF;fontFamily=Helvetica;fontStyle=0;html=1;fontSize=12;plain-purple;strokeColor=none;fillColor=#2f5b7c;gradientColor=none;spacing=6;verticalAlign=middle;" vertex="1" parent="1">
          <mxGeometry x="240" y="280" width="120" height="60" as="geometry" />
        </mxCell>
        <mxCell id="SFx-6rvFim5ZwtvSsJdO-3" value="中转入口" style="whiteSpace=wrap;shadow=0;fontColor=#FFFFFF;fontFamily=Helvetica;fontStyle=0;html=1;fontSize=12;plain-purple;strokeColor=none;fillColor=#2f5b7c;gradientColor=none;spacing=6;verticalAlign=middle;" vertex="1" parent="1">
          <mxGeometry x="440" y="280" width="120" height="60" as="geometry" />
        </mxCell>
        <mxCell id="nZiSrGzn1sCeWdxAGg9a-15" style="edgeStyle=orthogonalEdgeStyle;rounded=0;orthogonalLoop=1;jettySize=auto;html=1;exitX=1;exitY=0.5;exitDx=0;exitDy=0;entryX=0;entryY=0.5;entryDx=0;entryDy=0;" edge="1" parent="1" source="SFx-6rvFim5ZwtvSsJdO-4" target="nZiSrGzn1sCeWdxAGg9a-4">
          <mxGeometry relative="1" as="geometry" />
        </mxCell>
        <mxCell id="nZiSrGzn1sCeWdxAGg9a-16" style="edgeStyle=orthogonalEdgeStyle;rounded=0;orthogonalLoop=1;jettySize=auto;html=1;exitX=1;exitY=0.5;exitDx=0;exitDy=0;entryX=0;entryY=0.5;entryDx=0;entryDy=0;" edge="1" parent="1" source="SFx-6rvFim5ZwtvSsJdO-4" target="nZiSrGzn1sCeWdxAGg9a-5">
          <mxGeometry relative="1" as="geometry" />
        </mxCell>
        <mxCell id="SFx-6rvFim5ZwtvSsJdO-4" value="中转出口&lt;div&gt;（JP）&lt;/div&gt;" style="whiteSpace=wrap;shadow=0;fontColor=#FFFFFF;fontFamily=Helvetica;fontStyle=0;html=1;fontSize=12;plain-purple;strokeColor=none;fillColor=#2f5b7c;gradientColor=none;spacing=6;verticalAlign=middle;" vertex="1" parent="1">
          <mxGeometry x="840" y="360" width="120" height="60" as="geometry" />
        </mxCell>
        <mxCell id="nZiSrGzn1sCeWdxAGg9a-13" style="edgeStyle=orthogonalEdgeStyle;rounded=0;orthogonalLoop=1;jettySize=auto;html=1;exitX=1;exitY=0.5;exitDx=0;exitDy=0;" edge="1" parent="1" source="SFx-6rvFim5ZwtvSsJdO-5" target="nZiSrGzn1sCeWdxAGg9a-2">
          <mxGeometry relative="1" as="geometry" />
        </mxCell>
        <mxCell id="nZiSrGzn1sCeWdxAGg9a-14" style="edgeStyle=orthogonalEdgeStyle;rounded=0;orthogonalLoop=1;jettySize=auto;html=1;exitX=1;exitY=0.5;exitDx=0;exitDy=0;entryX=0;entryY=0.5;entryDx=0;entryDy=0;" edge="1" parent="1" source="SFx-6rvFim5ZwtvSsJdO-5" target="nZiSrGzn1sCeWdxAGg9a-3">
          <mxGeometry relative="1" as="geometry" />
        </mxCell>
        <mxCell id="SFx-6rvFim5ZwtvSsJdO-5" value="中转出口&lt;div&gt;（HK）&lt;/div&gt;" style="whiteSpace=wrap;shadow=0;fontColor=#FFFFFF;fontFamily=Helvetica;fontStyle=0;html=1;fontSize=12;plain-purple;strokeColor=none;fillColor=#2f5b7c;gradientColor=none;spacing=6;verticalAlign=middle;" vertex="1" parent="1">
          <mxGeometry x="840" y="200" width="120" height="60" as="geometry" />
        </mxCell>
        <mxCell id="nZiSrGzn1sCeWdxAGg9a-11" style="edgeStyle=orthogonalEdgeStyle;rounded=0;orthogonalLoop=1;jettySize=auto;html=1;exitX=1;exitY=0.5;exitDx=0;exitDy=0;exitPerimeter=0;entryX=0;entryY=0.5;entryDx=0;entryDy=0;" edge="1" parent="1" source="nZiSrGzn1sCeWdxAGg9a-1" target="SFx-6rvFim5ZwtvSsJdO-5">
          <mxGeometry relative="1" as="geometry" />
        </mxCell>
        <mxCell id="nZiSrGzn1sCeWdxAGg9a-12" style="edgeStyle=orthogonalEdgeStyle;rounded=0;orthogonalLoop=1;jettySize=auto;html=1;exitX=1;exitY=0.5;exitDx=0;exitDy=0;exitPerimeter=0;entryX=0;entryY=0.5;entryDx=0;entryDy=0;" edge="1" parent="1" source="nZiSrGzn1sCeWdxAGg9a-1" target="SFx-6rvFim5ZwtvSsJdO-4">
          <mxGeometry relative="1" as="geometry" />
        </mxCell>
        <mxCell id="nZiSrGzn1sCeWdxAGg9a-1" value="" style="sketch=0;points=[[0.015,0.015,0],[0.985,0.015,0],[0.985,0.985,0],[0.015,0.985,0],[0.25,0,0],[0.5,0,0],[0.75,0,0],[1,0.25,0],[1,0.5,0],[1,0.75,0],[0.75,1,0],[0.5,1,0],[0.25,1,0],[0,0.75,0],[0,0.5,0],[0,0.25,0]];verticalLabelPosition=bottom;html=1;verticalAlign=top;aspect=fixed;align=center;pointerEvents=1;shape=mxgraph.cisco19.rect;prIcon=firewall;fillColor=#FAFAFA;strokeColor=#005073;" vertex="1" parent="1">
          <mxGeometry x="640" y="263.13" width="120" height="93.75" as="geometry" />
        </mxCell>
        <mxCell id="nZiSrGzn1sCeWdxAGg9a-19" style="edgeStyle=orthogonalEdgeStyle;rounded=0;orthogonalLoop=1;jettySize=auto;html=1;exitX=1;exitY=0.5;exitDx=0;exitDy=0;entryX=0;entryY=0.5;entryDx=0;entryDy=0;" edge="1" parent="1" source="nZiSrGzn1sCeWdxAGg9a-2" target="nZiSrGzn1sCeWdxAGg9a-7">
          <mxGeometry relative="1" as="geometry">
            <mxPoint x="1280" y="190" as="targetPoint" />
          </mxGeometry>
        </mxCell>
        <mxCell id="nZiSrGzn1sCeWdxAGg9a-24" style="edgeStyle=orthogonalEdgeStyle;rounded=0;orthogonalLoop=1;jettySize=auto;html=1;exitX=1;exitY=0.5;exitDx=0;exitDy=0;entryX=0;entryY=0.5;entryDx=0;entryDy=0;" edge="1" parent="1" source="nZiSrGzn1sCeWdxAGg9a-2" target="nZiSrGzn1sCeWdxAGg9a-8">
          <mxGeometry relative="1" as="geometry" />
        </mxCell>
        <mxCell id="nZiSrGzn1sCeWdxAGg9a-2" value="&lt;div&gt;落地（HK）&lt;/div&gt;&lt;div&gt;审计 分流&amp;nbsp; &amp;nbsp;&lt;/div&gt;" style="whiteSpace=wrap;shadow=0;fontColor=#FFFFFF;fontFamily=Helvetica;fontStyle=0;html=1;fontSize=12;plain-purple;strokeColor=none;fillColor=#2f5b7c;gradientColor=none;spacing=6;verticalAlign=middle;" vertex="1" parent="1">
          <mxGeometry x="1080" y="160" width="120" height="60" as="geometry" />
        </mxCell>
        <mxCell id="nZiSrGzn1sCeWdxAGg9a-25" style="edgeStyle=orthogonalEdgeStyle;rounded=0;orthogonalLoop=1;jettySize=auto;html=1;exitX=1;exitY=0.5;exitDx=0;exitDy=0;" edge="1" parent="1" source="nZiSrGzn1sCeWdxAGg9a-3" target="nZiSrGzn1sCeWdxAGg9a-7">
          <mxGeometry relative="1" as="geometry" />
        </mxCell>
        <mxCell id="nZiSrGzn1sCeWdxAGg9a-29" value="审计" style="edgeLabel;html=1;align=center;verticalAlign=middle;resizable=0;points=[];" vertex="1" connectable="0" parent="nZiSrGzn1sCeWdxAGg9a-25">
          <mxGeometry x="0.5885" y="-2" relative="1" as="geometry">
            <mxPoint x="-4" y="-2" as="offset" />
          </mxGeometry>
        </mxCell>
        <mxCell id="nZiSrGzn1sCeWdxAGg9a-26" style="edgeStyle=orthogonalEdgeStyle;rounded=0;orthogonalLoop=1;jettySize=auto;html=1;exitX=1;exitY=0.5;exitDx=0;exitDy=0;entryX=0;entryY=0.5;entryDx=0;entryDy=0;" edge="1" parent="1" source="nZiSrGzn1sCeWdxAGg9a-3" target="nZiSrGzn1sCeWdxAGg9a-8">
          <mxGeometry relative="1" as="geometry" />
        </mxCell>
        <mxCell id="nZiSrGzn1sCeWdxAGg9a-3" value="&lt;div&gt;落地（SG）&lt;/div&gt;&lt;div&gt;审计 分流&amp;nbsp; &amp;nbsp;&lt;br&gt;&lt;/div&gt;" style="whiteSpace=wrap;shadow=0;fontColor=#FFFFFF;fontFamily=Helvetica;fontStyle=0;html=1;fontSize=12;plain-purple;strokeColor=none;fillColor=#2f5b7c;gradientColor=none;spacing=6;verticalAlign=middle;" vertex="1" parent="1">
          <mxGeometry x="1080" y="240" width="120" height="60" as="geometry" />
        </mxCell>
        <mxCell id="nZiSrGzn1sCeWdxAGg9a-27" style="edgeStyle=orthogonalEdgeStyle;rounded=0;orthogonalLoop=1;jettySize=auto;html=1;exitX=1;exitY=0.5;exitDx=0;exitDy=0;entryX=0;entryY=0.5;entryDx=0;entryDy=0;" edge="1" parent="1" source="nZiSrGzn1sCeWdxAGg9a-4" target="nZiSrGzn1sCeWdxAGg9a-8">
          <mxGeometry relative="1" as="geometry" />
        </mxCell>
        <mxCell id="nZiSrGzn1sCeWdxAGg9a-4" value="&lt;div&gt;落地（JP）&lt;/div&gt;&lt;div&gt;审计 分流&amp;nbsp; &amp;nbsp;&lt;br&gt;&lt;/div&gt;" style="whiteSpace=wrap;shadow=0;fontColor=#FFFFFF;fontFamily=Helvetica;fontStyle=0;html=1;fontSize=12;plain-purple;strokeColor=none;fillColor=#2f5b7c;gradientColor=none;spacing=6;verticalAlign=middle;" vertex="1" parent="1">
          <mxGeometry x="1080" y="320" width="120" height="60" as="geometry" />
        </mxCell>
        <mxCell id="nZiSrGzn1sCeWdxAGg9a-28" style="edgeStyle=orthogonalEdgeStyle;rounded=0;orthogonalLoop=1;jettySize=auto;html=1;exitX=1;exitY=0.5;exitDx=0;exitDy=0;entryX=0;entryY=0.5;entryDx=0;entryDy=0;" edge="1" parent="1" source="nZiSrGzn1sCeWdxAGg9a-5" target="nZiSrGzn1sCeWdxAGg9a-8">
          <mxGeometry relative="1" as="geometry" />
        </mxCell>
        <mxCell id="nZiSrGzn1sCeWdxAGg9a-30" value="分流" style="edgeLabel;html=1;align=center;verticalAlign=middle;resizable=0;points=[];" vertex="1" connectable="0" parent="nZiSrGzn1sCeWdxAGg9a-28">
          <mxGeometry x="0.5729" y="1" relative="1" as="geometry">
            <mxPoint as="offset" />
          </mxGeometry>
        </mxCell>
        <mxCell id="nZiSrGzn1sCeWdxAGg9a-5" value="&lt;div&gt;落地（US）&lt;/div&gt;&lt;div&gt;审计 分流&amp;nbsp; &amp;nbsp;&lt;br&gt;&lt;/div&gt;" style="whiteSpace=wrap;shadow=0;fontColor=#FFFFFF;fontFamily=Helvetica;fontStyle=0;html=1;fontSize=12;plain-purple;strokeColor=none;fillColor=#2f5b7c;gradientColor=none;spacing=6;verticalAlign=middle;" vertex="1" parent="1">
          <mxGeometry x="1080" y="400" width="120" height="60" as="geometry" />
        </mxCell>
        <mxCell id="nZiSrGzn1sCeWdxAGg9a-6" value="CF-站点&lt;div&gt;（HK）&lt;/div&gt;" style="whiteSpace=wrap;shadow=0;fontColor=#FFFFFF;fontFamily=Helvetica;fontStyle=0;html=1;fontSize=12;plain-purple;strokeColor=none;fillColor=#2f5b7c;gradientColor=none;spacing=6;verticalAlign=middle;" vertex="1" parent="1">
          <mxGeometry x="840" y="40" width="120" height="60" as="geometry" />
        </mxCell>
        <mxCell id="nZiSrGzn1sCeWdxAGg9a-7" value="&lt;div&gt;国际互联网&lt;/div&gt;" style="whiteSpace=wrap;shadow=0;fontColor=#FFFFFF;fontFamily=Helvetica;fontStyle=0;html=1;fontSize=12;plain-purple;strokeColor=none;fillColor=#2f5b7c;gradientColor=none;spacing=6;verticalAlign=middle;" vertex="1" parent="1">
          <mxGeometry x="1320" y="200" width="120" height="60" as="geometry" />
        </mxCell>
        <mxCell id="nZiSrGzn1sCeWdxAGg9a-8" value="&lt;div&gt;DNS解锁&lt;/div&gt;" style="whiteSpace=wrap;shadow=0;fontColor=#FFFFFF;fontFamily=Helvetica;fontStyle=0;html=1;fontSize=12;plain-purple;strokeColor=none;fillColor=#2f5b7c;gradientColor=none;spacing=6;verticalAlign=middle;" vertex="1" parent="1">
          <mxGeometry x="1320" y="356.88" width="120" height="60" as="geometry" />
        </mxCell>
        <mxCell id="nZiSrGzn1sCeWdxAGg9a-10" style="edgeStyle=orthogonalEdgeStyle;rounded=0;orthogonalLoop=1;jettySize=auto;html=1;exitX=1;exitY=0.5;exitDx=0;exitDy=0;entryX=0;entryY=0.5;entryDx=0;entryDy=0;entryPerimeter=0;" edge="1" parent="1" source="SFx-6rvFim5ZwtvSsJdO-3" target="nZiSrGzn1sCeWdxAGg9a-1">
          <mxGeometry relative="1" as="geometry" />
        </mxCell>
        <mxCell id="nZiSrGzn1sCeWdxAGg9a-35" style="edgeStyle=orthogonalEdgeStyle;rounded=0;orthogonalLoop=1;jettySize=auto;html=1;exitX=1;exitY=0.5;exitDx=0;exitDy=0;exitPerimeter=0;" edge="1" parent="1" source="nZiSrGzn1sCeWdxAGg9a-34" target="nZiSrGzn1sCeWdxAGg9a-6">
          <mxGeometry relative="1" as="geometry" />
        </mxCell>
        <mxCell id="nZiSrGzn1sCeWdxAGg9a-34" value="" style="sketch=0;points=[[0.015,0.015,0],[0.985,0.015,0],[0.985,0.985,0],[0.015,0.985,0],[0.25,0,0],[0.5,0,0],[0.75,0,0],[1,0.25,0],[1,0.5,0],[1,0.75,0],[0.75,1,0],[0.5,1,0],[0.25,1,0],[0,0.75,0],[0,0.5,0],[0,0.25,0]];verticalLabelPosition=bottom;html=1;verticalAlign=top;aspect=fixed;align=center;pointerEvents=1;shape=mxgraph.cisco19.rect;prIcon=firewall;fillColor=#FAFAFA;strokeColor=#005073;" vertex="1" parent="1">
          <mxGeometry x="640" y="23.129999999999995" width="120" height="93.75" as="geometry" />
        </mxCell>
        <mxCell id="nZiSrGzn1sCeWdxAGg9a-36" style="edgeStyle=orthogonalEdgeStyle;rounded=0;orthogonalLoop=1;jettySize=auto;html=1;exitX=1;exitY=0.5;exitDx=0;exitDy=0;entryX=0;entryY=0.5;entryDx=0;entryDy=0;entryPerimeter=0;" edge="1" parent="1" source="SFx-6rvFim5ZwtvSsJdO-1" target="nZiSrGzn1sCeWdxAGg9a-34">
          <mxGeometry relative="1" as="geometry">
            <Array as="points">
              <mxPoint x="200" y="230" />
              <mxPoint x="200" y="70" />
            </Array>
          </mxGeometry>
        </mxCell>
      </root>
    </mxGraphModel>
  </diagram>
  <diagram name="中转详细" id="W5FNwdfdSdKbDyziT0vc">
    <mxGraphModel dx="1687" dy="908" grid="1" gridSize="10" guides="1" tooltips="1" connect="1" arrows="1" fold="1" page="1" pageScale="1" pageWidth="827" pageHeight="1169" math="0" shadow="0">
      <root>
        <mxCell id="1MUESyGhSHLBZ_AK3r4B-0" />
        <mxCell id="1MUESyGhSHLBZ_AK3r4B-1" parent="1MUESyGhSHLBZ_AK3r4B-0" />
        <mxCell id="1MUESyGhSHLBZ_AK3r4B-2" style="edgeStyle=orthogonalEdgeStyle;rounded=0;orthogonalLoop=1;jettySize=auto;html=1;exitX=1;exitY=0.5;exitDx=0;exitDy=0;entryX=0;entryY=0.5;entryDx=0;entryDy=0;" edge="1" parent="1MUESyGhSHLBZ_AK3r4B-1" source="1MUESyGhSHLBZ_AK3r4B-3" target="1MUESyGhSHLBZ_AK3r4B-5">
          <mxGeometry relative="1" as="geometry" />
        </mxCell>
        <mxCell id="1MUESyGhSHLBZ_AK3r4B-3" value="用户" style="whiteSpace=wrap;shadow=0;fontColor=#FFFFFF;fontFamily=Helvetica;fontStyle=0;html=1;fontSize=12;plain-purple;strokeColor=none;fillColor=#2f5b7c;gradientColor=none;spacing=6;verticalAlign=middle;" vertex="1" parent="1MUESyGhSHLBZ_AK3r4B-1">
          <mxGeometry x="40" y="200" width="120" height="60" as="geometry" />
        </mxCell>
        <mxCell id="1MUESyGhSHLBZ_AK3r4B-4" style="edgeStyle=orthogonalEdgeStyle;rounded=0;orthogonalLoop=1;jettySize=auto;html=1;exitX=1;exitY=0.5;exitDx=0;exitDy=0;entryX=0;entryY=0.5;entryDx=0;entryDy=0;" edge="1" parent="1MUESyGhSHLBZ_AK3r4B-1" source="1MUESyGhSHLBZ_AK3r4B-5" target="1MUESyGhSHLBZ_AK3r4B-6">
          <mxGeometry relative="1" as="geometry" />
        </mxCell>
        <mxCell id="1MUESyGhSHLBZ_AK3r4B-5" value="国内高防" style="whiteSpace=wrap;shadow=0;fontColor=#FFFFFF;fontFamily=Helvetica;fontStyle=0;html=1;fontSize=12;plain-purple;strokeColor=none;fillColor=#2f5b7c;gradientColor=none;spacing=6;verticalAlign=middle;" vertex="1" parent="1MUESyGhSHLBZ_AK3r4B-1">
          <mxGeometry x="240" y="280" width="120" height="60" as="geometry" />
        </mxCell>
        <mxCell id="1MUESyGhSHLBZ_AK3r4B-6" value="中转入口" style="whiteSpace=wrap;shadow=0;fontColor=#FFFFFF;fontFamily=Helvetica;fontStyle=0;html=1;fontSize=12;plain-purple;strokeColor=none;fillColor=#2f5b7c;gradientColor=none;spacing=6;verticalAlign=middle;" vertex="1" parent="1MUESyGhSHLBZ_AK3r4B-1">
          <mxGeometry x="440" y="280" width="120" height="60" as="geometry" />
        </mxCell>
        <mxCell id="1MUESyGhSHLBZ_AK3r4B-7" style="edgeStyle=orthogonalEdgeStyle;rounded=0;orthogonalLoop=1;jettySize=auto;html=1;exitX=1;exitY=0.5;exitDx=0;exitDy=0;entryX=0;entryY=0.5;entryDx=0;entryDy=0;" edge="1" parent="1MUESyGhSHLBZ_AK3r4B-1" source="1MUESyGhSHLBZ_AK3r4B-9" target="1MUESyGhSHLBZ_AK3r4B-24">
          <mxGeometry relative="1" as="geometry" />
        </mxCell>
        <mxCell id="1MUESyGhSHLBZ_AK3r4B-8" style="edgeStyle=orthogonalEdgeStyle;rounded=0;orthogonalLoop=1;jettySize=auto;html=1;exitX=1;exitY=0.5;exitDx=0;exitDy=0;entryX=0;entryY=0.5;entryDx=0;entryDy=0;" edge="1" parent="1MUESyGhSHLBZ_AK3r4B-1" source="1MUESyGhSHLBZ_AK3r4B-9" target="1MUESyGhSHLBZ_AK3r4B-27">
          <mxGeometry relative="1" as="geometry" />
        </mxCell>
        <mxCell id="1MUESyGhSHLBZ_AK3r4B-9" value="中转出口&lt;div&gt;（JP）&lt;/div&gt;" style="whiteSpace=wrap;shadow=0;fontColor=#FFFFFF;fontFamily=Helvetica;fontStyle=0;html=1;fontSize=12;plain-purple;strokeColor=none;fillColor=#2f5b7c;gradientColor=none;spacing=6;verticalAlign=middle;" vertex="1" parent="1MUESyGhSHLBZ_AK3r4B-1">
          <mxGeometry x="840" y="360" width="120" height="60" as="geometry" />
        </mxCell>
        <mxCell id="1MUESyGhSHLBZ_AK3r4B-10" style="edgeStyle=orthogonalEdgeStyle;rounded=0;orthogonalLoop=1;jettySize=auto;html=1;exitX=1;exitY=0.5;exitDx=0;exitDy=0;" edge="1" parent="1MUESyGhSHLBZ_AK3r4B-1" source="1MUESyGhSHLBZ_AK3r4B-12" target="1MUESyGhSHLBZ_AK3r4B-18">
          <mxGeometry relative="1" as="geometry" />
        </mxCell>
        <mxCell id="1MUESyGhSHLBZ_AK3r4B-11" style="edgeStyle=orthogonalEdgeStyle;rounded=0;orthogonalLoop=1;jettySize=auto;html=1;exitX=1;exitY=0.5;exitDx=0;exitDy=0;entryX=0;entryY=0.5;entryDx=0;entryDy=0;" edge="1" parent="1MUESyGhSHLBZ_AK3r4B-1" source="1MUESyGhSHLBZ_AK3r4B-12" target="1MUESyGhSHLBZ_AK3r4B-22">
          <mxGeometry relative="1" as="geometry" />
        </mxCell>
        <mxCell id="1MUESyGhSHLBZ_AK3r4B-12" value="中转出口&lt;div&gt;（HK）&lt;/div&gt;" style="whiteSpace=wrap;shadow=0;fontColor=#FFFFFF;fontFamily=Helvetica;fontStyle=0;html=1;fontSize=12;plain-purple;strokeColor=none;fillColor=#2f5b7c;gradientColor=none;spacing=6;verticalAlign=middle;" vertex="1" parent="1MUESyGhSHLBZ_AK3r4B-1">
          <mxGeometry x="840" y="200" width="120" height="60" as="geometry" />
        </mxCell>
        <mxCell id="1MUESyGhSHLBZ_AK3r4B-13" style="edgeStyle=orthogonalEdgeStyle;rounded=0;orthogonalLoop=1;jettySize=auto;html=1;exitX=1;exitY=0.5;exitDx=0;exitDy=0;exitPerimeter=0;entryX=0;entryY=0.5;entryDx=0;entryDy=0;" edge="1" parent="1MUESyGhSHLBZ_AK3r4B-1" source="1MUESyGhSHLBZ_AK3r4B-15" target="1MUESyGhSHLBZ_AK3r4B-12">
          <mxGeometry relative="1" as="geometry" />
        </mxCell>
        <mxCell id="1MUESyGhSHLBZ_AK3r4B-14" style="edgeStyle=orthogonalEdgeStyle;rounded=0;orthogonalLoop=1;jettySize=auto;html=1;exitX=1;exitY=0.5;exitDx=0;exitDy=0;exitPerimeter=0;entryX=0;entryY=0.5;entryDx=0;entryDy=0;" edge="1" parent="1MUESyGhSHLBZ_AK3r4B-1" source="1MUESyGhSHLBZ_AK3r4B-15" target="1MUESyGhSHLBZ_AK3r4B-9">
          <mxGeometry relative="1" as="geometry" />
        </mxCell>
        <mxCell id="1MUESyGhSHLBZ_AK3r4B-15" value="" style="sketch=0;points=[[0.015,0.015,0],[0.985,0.015,0],[0.985,0.985,0],[0.015,0.985,0],[0.25,0,0],[0.5,0,0],[0.75,0,0],[1,0.25,0],[1,0.5,0],[1,0.75,0],[0.75,1,0],[0.5,1,0],[0.25,1,0],[0,0.75,0],[0,0.5,0],[0,0.25,0]];verticalLabelPosition=bottom;html=1;verticalAlign=top;aspect=fixed;align=center;pointerEvents=1;shape=mxgraph.cisco19.rect;prIcon=firewall;fillColor=#FAFAFA;strokeColor=#005073;" vertex="1" parent="1MUESyGhSHLBZ_AK3r4B-1">
          <mxGeometry x="640" y="263.13" width="120" height="93.75" as="geometry" />
        </mxCell>
        <mxCell id="1MUESyGhSHLBZ_AK3r4B-16" style="edgeStyle=orthogonalEdgeStyle;rounded=0;orthogonalLoop=1;jettySize=auto;html=1;exitX=1;exitY=0.5;exitDx=0;exitDy=0;entryX=0;entryY=0.5;entryDx=0;entryDy=0;" edge="1" parent="1MUESyGhSHLBZ_AK3r4B-1" source="1MUESyGhSHLBZ_AK3r4B-18" target="1MUESyGhSHLBZ_AK3r4B-29">
          <mxGeometry relative="1" as="geometry">
            <mxPoint x="1280" y="190" as="targetPoint" />
          </mxGeometry>
        </mxCell>
        <mxCell id="1MUESyGhSHLBZ_AK3r4B-17" style="edgeStyle=orthogonalEdgeStyle;rounded=0;orthogonalLoop=1;jettySize=auto;html=1;exitX=1;exitY=0.5;exitDx=0;exitDy=0;entryX=0;entryY=0.5;entryDx=0;entryDy=0;" edge="1" parent="1MUESyGhSHLBZ_AK3r4B-1" source="1MUESyGhSHLBZ_AK3r4B-18" target="1MUESyGhSHLBZ_AK3r4B-30">
          <mxGeometry relative="1" as="geometry" />
        </mxCell>
        <mxCell id="1MUESyGhSHLBZ_AK3r4B-18" value="&lt;div&gt;落地（HK）&lt;/div&gt;&lt;div&gt;审计 分流&amp;nbsp; &amp;nbsp;&lt;/div&gt;" style="whiteSpace=wrap;shadow=0;fontColor=#FFFFFF;fontFamily=Helvetica;fontStyle=0;html=1;fontSize=12;plain-purple;strokeColor=none;fillColor=#2f5b7c;gradientColor=none;spacing=6;verticalAlign=middle;" vertex="1" parent="1MUESyGhSHLBZ_AK3r4B-1">
          <mxGeometry x="1080" y="160" width="120" height="60" as="geometry" />
        </mxCell>
        <mxCell id="1MUESyGhSHLBZ_AK3r4B-19" style="edgeStyle=orthogonalEdgeStyle;rounded=0;orthogonalLoop=1;jettySize=auto;html=1;exitX=1;exitY=0.5;exitDx=0;exitDy=0;" edge="1" parent="1MUESyGhSHLBZ_AK3r4B-1" source="1MUESyGhSHLBZ_AK3r4B-22" target="1MUESyGhSHLBZ_AK3r4B-29">
          <mxGeometry relative="1" as="geometry" />
        </mxCell>
        <mxCell id="1MUESyGhSHLBZ_AK3r4B-20" value="审计" style="edgeLabel;html=1;align=center;verticalAlign=middle;resizable=0;points=[];" vertex="1" connectable="0" parent="1MUESyGhSHLBZ_AK3r4B-19">
          <mxGeometry x="0.5885" y="-2" relative="1" as="geometry">
            <mxPoint x="-4" y="-2" as="offset" />
          </mxGeometry>
        </mxCell>
        <mxCell id="1MUESyGhSHLBZ_AK3r4B-21" style="edgeStyle=orthogonalEdgeStyle;rounded=0;orthogonalLoop=1;jettySize=auto;html=1;exitX=1;exitY=0.5;exitDx=0;exitDy=0;entryX=0;entryY=0.5;entryDx=0;entryDy=0;" edge="1" parent="1MUESyGhSHLBZ_AK3r4B-1" source="1MUESyGhSHLBZ_AK3r4B-22" target="1MUESyGhSHLBZ_AK3r4B-30">
          <mxGeometry relative="1" as="geometry" />
        </mxCell>
        <mxCell id="1MUESyGhSHLBZ_AK3r4B-22" value="&lt;div&gt;落地（SG）&lt;/div&gt;&lt;div&gt;审计 分流&amp;nbsp; &amp;nbsp;&lt;br&gt;&lt;/div&gt;" style="whiteSpace=wrap;shadow=0;fontColor=#FFFFFF;fontFamily=Helvetica;fontStyle=0;html=1;fontSize=12;plain-purple;strokeColor=none;fillColor=#2f5b7c;gradientColor=none;spacing=6;verticalAlign=middle;" vertex="1" parent="1MUESyGhSHLBZ_AK3r4B-1">
          <mxGeometry x="1080" y="240" width="120" height="60" as="geometry" />
        </mxCell>
        <mxCell id="1MUESyGhSHLBZ_AK3r4B-23" style="edgeStyle=orthogonalEdgeStyle;rounded=0;orthogonalLoop=1;jettySize=auto;html=1;exitX=1;exitY=0.5;exitDx=0;exitDy=0;entryX=0;entryY=0.5;entryDx=0;entryDy=0;" edge="1" parent="1MUESyGhSHLBZ_AK3r4B-1" source="1MUESyGhSHLBZ_AK3r4B-24" target="1MUESyGhSHLBZ_AK3r4B-30">
          <mxGeometry relative="1" as="geometry" />
        </mxCell>
        <mxCell id="1MUESyGhSHLBZ_AK3r4B-24" value="&lt;div&gt;落地（JP）&lt;/div&gt;&lt;div&gt;审计 分流&amp;nbsp; &amp;nbsp;&lt;br&gt;&lt;/div&gt;" style="whiteSpace=wrap;shadow=0;fontColor=#FFFFFF;fontFamily=Helvetica;fontStyle=0;html=1;fontSize=12;plain-purple;strokeColor=none;fillColor=#2f5b7c;gradientColor=none;spacing=6;verticalAlign=middle;" vertex="1" parent="1MUESyGhSHLBZ_AK3r4B-1">
          <mxGeometry x="1080" y="320" width="120" height="60" as="geometry" />
        </mxCell>
        <mxCell id="1MUESyGhSHLBZ_AK3r4B-25" style="edgeStyle=orthogonalEdgeStyle;rounded=0;orthogonalLoop=1;jettySize=auto;html=1;exitX=1;exitY=0.5;exitDx=0;exitDy=0;entryX=0;entryY=0.5;entryDx=0;entryDy=0;" edge="1" parent="1MUESyGhSHLBZ_AK3r4B-1" source="1MUESyGhSHLBZ_AK3r4B-27" target="1MUESyGhSHLBZ_AK3r4B-30">
          <mxGeometry relative="1" as="geometry" />
        </mxCell>
        <mxCell id="1MUESyGhSHLBZ_AK3r4B-26" value="分流" style="edgeLabel;html=1;align=center;verticalAlign=middle;resizable=0;points=[];" vertex="1" connectable="0" parent="1MUESyGhSHLBZ_AK3r4B-25">
          <mxGeometry x="0.5729" y="1" relative="1" as="geometry">
            <mxPoint as="offset" />
          </mxGeometry>
        </mxCell>
        <mxCell id="1MUESyGhSHLBZ_AK3r4B-27" value="&lt;div&gt;落地（US）&lt;/div&gt;&lt;div&gt;审计 分流&amp;nbsp; &amp;nbsp;&lt;br&gt;&lt;/div&gt;" style="whiteSpace=wrap;shadow=0;fontColor=#FFFFFF;fontFamily=Helvetica;fontStyle=0;html=1;fontSize=12;plain-purple;strokeColor=none;fillColor=#2f5b7c;gradientColor=none;spacing=6;verticalAlign=middle;" vertex="1" parent="1MUESyGhSHLBZ_AK3r4B-1">
          <mxGeometry x="1080" y="400" width="120" height="60" as="geometry" />
        </mxCell>
        <mxCell id="1MUESyGhSHLBZ_AK3r4B-28" value="CF-站点&lt;div&gt;（HK）&lt;/div&gt;" style="whiteSpace=wrap;shadow=0;fontColor=#FFFFFF;fontFamily=Helvetica;fontStyle=0;html=1;fontSize=12;plain-purple;strokeColor=none;fillColor=#2f5b7c;gradientColor=none;spacing=6;verticalAlign=middle;" vertex="1" parent="1MUESyGhSHLBZ_AK3r4B-1">
          <mxGeometry x="840" y="40" width="120" height="60" as="geometry" />
        </mxCell>
        <mxCell id="1MUESyGhSHLBZ_AK3r4B-29" value="&lt;div&gt;国际互联网&lt;/div&gt;" style="whiteSpace=wrap;shadow=0;fontColor=#FFFFFF;fontFamily=Helvetica;fontStyle=0;html=1;fontSize=12;plain-purple;strokeColor=none;fillColor=#2f5b7c;gradientColor=none;spacing=6;verticalAlign=middle;" vertex="1" parent="1MUESyGhSHLBZ_AK3r4B-1">
          <mxGeometry x="1320" y="200" width="120" height="60" as="geometry" />
        </mxCell>
        <mxCell id="1MUESyGhSHLBZ_AK3r4B-30" value="&lt;div&gt;DNS解锁&lt;/div&gt;" style="whiteSpace=wrap;shadow=0;fontColor=#FFFFFF;fontFamily=Helvetica;fontStyle=0;html=1;fontSize=12;plain-purple;strokeColor=none;fillColor=#2f5b7c;gradientColor=none;spacing=6;verticalAlign=middle;" vertex="1" parent="1MUESyGhSHLBZ_AK3r4B-1">
          <mxGeometry x="1320" y="356.88" width="120" height="60" as="geometry" />
        </mxCell>
        <mxCell id="1MUESyGhSHLBZ_AK3r4B-31" style="edgeStyle=orthogonalEdgeStyle;rounded=0;orthogonalLoop=1;jettySize=auto;html=1;exitX=1;exitY=0.5;exitDx=0;exitDy=0;entryX=0;entryY=0.5;entryDx=0;entryDy=0;entryPerimeter=0;" edge="1" parent="1MUESyGhSHLBZ_AK3r4B-1" source="1MUESyGhSHLBZ_AK3r4B-6" target="1MUESyGhSHLBZ_AK3r4B-15">
          <mxGeometry relative="1" as="geometry" />
        </mxCell>
        <mxCell id="1MUESyGhSHLBZ_AK3r4B-32" style="edgeStyle=orthogonalEdgeStyle;rounded=0;orthogonalLoop=1;jettySize=auto;html=1;exitX=1;exitY=0.5;exitDx=0;exitDy=0;exitPerimeter=0;" edge="1" parent="1MUESyGhSHLBZ_AK3r4B-1" source="1MUESyGhSHLBZ_AK3r4B-33" target="1MUESyGhSHLBZ_AK3r4B-28">
          <mxGeometry relative="1" as="geometry" />
        </mxCell>
        <mxCell id="1MUESyGhSHLBZ_AK3r4B-33" value="" style="sketch=0;points=[[0.015,0.015,0],[0.985,0.015,0],[0.985,0.985,0],[0.015,0.985,0],[0.25,0,0],[0.5,0,0],[0.75,0,0],[1,0.25,0],[1,0.5,0],[1,0.75,0],[0.75,1,0],[0.5,1,0],[0.25,1,0],[0,0.75,0],[0,0.5,0],[0,0.25,0]];verticalLabelPosition=bottom;html=1;verticalAlign=top;aspect=fixed;align=center;pointerEvents=1;shape=mxgraph.cisco19.rect;prIcon=firewall;fillColor=#FAFAFA;strokeColor=#005073;" vertex="1" parent="1MUESyGhSHLBZ_AK3r4B-1">
          <mxGeometry x="640" y="23.129999999999995" width="120" height="93.75" as="geometry" />
        </mxCell>
        <mxCell id="1MUESyGhSHLBZ_AK3r4B-34" style="edgeStyle=orthogonalEdgeStyle;rounded=0;orthogonalLoop=1;jettySize=auto;html=1;exitX=1;exitY=0.5;exitDx=0;exitDy=0;entryX=0;entryY=0.5;entryDx=0;entryDy=0;entryPerimeter=0;" edge="1" parent="1MUESyGhSHLBZ_AK3r4B-1" source="1MUESyGhSHLBZ_AK3r4B-3" target="1MUESyGhSHLBZ_AK3r4B-33">
          <mxGeometry relative="1" as="geometry">
            <Array as="points">
              <mxPoint x="200" y="230" />
              <mxPoint x="200" y="70" />
            </Array>
          </mxGeometry>
        </mxCell>
      </root>
    </mxGraphModel>
  </diagram>
</mxfile>
